<svg width="748" height="128" viewBox="0 0 748 128" fill="none"
    xmlns="http://www.w3.org/2000/svg">
    <circle cx="64" cy="64" r="64" fill="#46CB19"/>
    <path d="M32 64C32 52.9543 40.9543 44 52 44H76C87.0457 44 96 52.9543 96 64V64C96 75.0457 87.0457 84 76 84H52C40.9543 84 32 75.0457 32 64V64Z" fill="white"/>
    <path d="M61.9962 63.8167C62.024 55.5458 68.7508 48.8957 77.0648 48.9156C85.2396 48.9394 92.0062 55.7484 91.9664 63.9199C91.9266 72.2464 85.1919 78.8806 76.8102 78.8449C68.5957 78.8091 61.9723 72.0875 61.9962 63.8127V63.8167Z" fill="#46CB19"/>
    <path d="M262.477 82.8652C261.308 84.4279 259.837 85.6867 258.062 86.6199C255.898 87.7485 253.409 88.3345 250.682 88.3345C246.57 88.3345 243.172 87.2493 240.618 85.1007C238.433 83.2559 237.026 80.8033 236.42 77.7648H281.587C281.587 77.7648 281.955 77.8299 281.955 75.0518C281.955 71.1452 281.565 65.958 280.656 62.8109V62.7241C279.791 59.8592 278.557 57.2114 276.912 54.8457L276.349 54.0643C273.211 49.8321 269.381 46.5331 264.944 44.2108C260.486 41.8668 255.595 40.6948 250.466 40.6948C245.336 40.6948 242.35 41.563 238.541 43.2993C234.732 45.0139 231.269 47.4881 228.261 50.6785C225.512 53.5651 223.37 56.8858 221.941 60.5537L221.898 60.6406C220.513 64.2434 219.799 68.1501 219.799 72.2521C219.799 76.3541 220.556 80.1956 222.136 84.0589C223.694 87.8788 225.902 91.2862 228.694 94.1945C231.659 97.2548 235.056 99.5988 238.757 101.161C242.48 102.724 246.613 103.527 251.028 103.527C257.607 103.527 263.516 101.704 268.537 98.1229C273.514 94.5635 277.323 89.5499 279.834 83.1907L279.964 82.8652H262.477ZM241.809 58.5353C244.363 56.6037 247.263 55.6053 250.487 55.6053C253.712 55.6053 257.391 56.5168 259.837 58.3183C261.849 59.7941 263.408 61.8994 264.468 64.5689H237.221C238.195 62.1598 239.731 60.1414 241.809 58.5353Z" fill="#46CB19"/>
    <path d="M396.959 82.8657C395.791 84.4283 394.319 85.6872 392.544 86.6204C390.38 87.749 387.891 88.335 385.164 88.335C381.052 88.335 377.655 87.2498 375.101 85.1012C372.915 83.2563 371.508 80.8038 370.902 77.7653H416.069C416.069 77.7653 416.437 77.8304 416.437 75.0523C416.437 71.1457 416.048 65.9585 415.139 62.8114V62.7246C414.273 59.8597 413.039 57.2119 411.395 54.8461L410.832 54.0648C407.694 49.8326 403.863 46.5336 399.427 44.2113C394.968 41.8673 390.077 40.6953 384.948 40.6953C379.819 40.6953 376.832 41.5635 373.023 43.2998C369.214 45.0144 365.752 47.4886 362.743 50.679C359.995 53.5656 357.852 56.8863 356.424 60.5542L356.381 60.641C354.995 64.2439 354.281 68.1505 354.281 72.2526C354.281 76.3546 355.039 80.1961 356.619 84.0594C358.177 87.8792 360.384 91.2867 363.176 94.195C366.141 97.2553 369.539 99.5993 373.24 101.162C376.962 102.725 381.096 103.528 385.511 103.528C392.09 103.528 397.998 101.705 403.019 98.1234C407.997 94.564 411.806 89.5504 414.316 83.1912L414.446 82.8657H396.959ZM376.27 58.5358C378.823 56.6042 381.723 55.6058 384.948 55.6058C388.173 55.6058 391.852 56.5173 394.297 58.3187C396.31 59.7946 397.868 61.8999 398.929 64.5694H371.681C372.655 62.1603 374.192 60.1419 376.27 58.5358Z" fill="#46CB19"/>
    <path d="M728.157 82.8652C726.988 84.4279 725.516 85.6867 723.742 86.6199C721.577 87.7485 719.089 88.3345 716.362 88.3345C712.25 88.3345 708.852 87.2493 706.298 85.1007C704.112 83.2559 702.706 80.8033 702.1 77.7648H747.267C747.267 77.7648 747.634 77.8299 747.634 75.0518C747.634 71.1452 747.245 65.958 746.336 62.8109V62.7241C745.47 59.8592 744.237 57.2114 742.592 54.8457L742.029 54.0643C738.891 49.8321 735.06 46.5331 730.624 44.2108C726.166 41.8668 721.274 40.6948 716.145 40.6948C711.016 40.6948 708.03 41.563 704.221 43.2993C700.412 45.0139 696.949 47.4881 693.941 50.6785C691.192 53.5651 689.049 56.8858 687.621 60.5537L687.578 60.6406C686.193 64.2434 685.479 68.1501 685.479 72.2521C685.479 76.3541 686.236 80.1956 687.816 84.0589C689.374 87.8788 691.582 91.2862 694.373 94.1945C697.338 97.2548 700.736 99.5988 704.437 101.161C708.159 102.724 712.293 103.527 716.708 103.527C723.287 103.527 729.195 101.704 734.216 98.1229C739.194 94.5635 743.003 89.5499 745.514 83.1907L745.643 82.8652H728.157ZM707.467 58.5353C710.021 56.6037 712.921 55.6053 716.145 55.6053C719.37 55.6053 723.049 56.5168 725.495 58.3183C727.507 59.7941 729.066 61.8994 730.126 64.5689H702.879C703.853 62.1598 705.389 60.1414 707.467 58.5353Z" fill="#46CB19"/>
    <path d="M306.754 24.0005H290.761V41.2333H282.039V55.7965H290.761V103.783H306.754V55.7965H315.519V41.2333H306.754V24.0005Z" fill="#46CB19"/>
    <path d="M345.409 24.0005H329.415V41.2333H320.693V55.7965H329.415V103.783H345.409V55.7965H354.174V41.2333H345.409V24.0005Z" fill="#46CB19"/>
    <path d="M419.781 41.3579H431.188L433.878 48.1645C434.951 46.8056 436.291 45.5754 437.768 44.4859C440.32 42.4474 443.945 41.3579 448.644 41.3579C450.122 41.3579 450.552 41.3579 450.892 41.3579V57.4197C449.957 57.2791 449.579 57.0097 447.974 57.0097C440.458 57.0097 435.229 62.4573 435.229 70.6346V104H419.793V41.3579H419.781Z" fill="#46CB19"/>
    <path d="M456.471 41.3567H468.329L471.125 47.4839C472.385 46.2538 473.91 45.0354 475.446 44.0747C478.098 42.4345 481.867 40.6655 486.463 40.6655C493.016 40.6655 497.625 42.704 500.553 44.7542C502.233 45.9843 503.626 47.3433 504.598 48.8429C506.134 47.3433 507.802 45.9843 509.758 44.7542C513.107 42.7157 517.847 40.6655 523.428 40.6655C537.386 40.6655 546.447 49.5224 546.447 66.5448V103.999H530.401V67.9038C530.401 60.2771 525.516 55.6495 519.936 55.6495C514.355 55.6495 509.47 60.2771 509.47 67.9038V103.999H493.424V67.9038C493.424 60.2771 488.54 55.6495 482.959 55.6495C477.378 55.6495 472.493 60.2771 472.493 67.9038V103.999H456.447V41.3567H456.471Z" fill="#46CB19"/>
    <path d="M603.785 49.2242L601.967 47.4661V47.6398C599.435 45.5779 596.686 43.9718 593.786 42.8215C590.172 41.4108 586.168 40.6946 581.905 40.6946C577.641 40.6946 573.919 41.4976 570.153 43.1037C566.452 44.6881 563.076 46.967 560.111 49.897L560.025 49.9838C557.103 52.8921 554.852 56.2779 553.316 60.0326C551.779 63.7874 551 67.7809 551 71.948C551 76.1151 551.757 80.0435 553.229 83.7548C554.701 87.4661 556.908 90.917 559.787 93.999C562.817 97.146 566.193 99.5551 569.872 101.139C573.529 102.724 577.663 103.527 582.143 103.527C586.623 103.527 590.713 102.724 594.479 101.161C598.266 99.5985 601.686 97.2545 604.629 94.1943C607.572 91.1992 609.823 87.77 611.295 84.0152C612.766 80.2822 613.524 76.1151 613.524 71.6224C613.524 67.1297 612.658 63.4835 610.97 59.5768C609.282 55.6919 606.858 52.2193 603.763 49.2242H603.785ZM597.033 71.5356C597.033 76.5058 595.669 80.4992 593.007 83.3858C590.367 86.229 586.753 87.6832 582.251 87.6832C577.75 87.6832 574.027 86.2724 571.387 83.4727C568.725 80.6512 567.383 76.7445 567.383 71.8395C567.383 66.9344 568.768 63.5269 571.517 60.6837C574.244 57.8405 577.858 56.4081 582.208 56.4081C586.558 56.4081 589.956 57.7971 592.791 60.6403C595.583 63.4618 596.989 67.108 596.989 71.5356H597.033Z" fill="#46CB19"/>
    <path d="M664.887 45.7686C662.917 44.4447 660.84 43.4029 658.697 42.6867H658.654C655.689 41.6883 652.27 41.1891 648.504 41.1891C644.738 41.1891 640.713 41.8836 637.272 43.2076C633.766 44.5532 630.606 46.5282 627.922 49.0893C624.676 52.0627 622.122 55.6221 620.369 59.6373C618.595 63.6742 617.686 67.9715 617.686 72.3557C617.686 76.7399 618.659 81.6666 620.586 85.8988C622.512 90.1311 625.304 93.8424 628.896 96.946C631.515 99.2249 634.545 100.983 637.878 102.198H637.921C641.232 103.392 644.781 104 648.504 104C652.226 104 655.364 103.457 658.394 102.394C660.623 101.612 662.809 100.505 664.908 99.1164V103.804H680.685V23.9998H664.908V45.7686H664.887ZM660.082 61.4604C662.788 64.3036 664.216 67.9064 664.346 72.1387V72.7464C664.346 77.022 662.939 80.6682 660.169 83.6416C657.42 86.5716 654.023 88.0692 650.062 88.0692C646.102 88.0692 641.687 86.5716 638.722 83.6416L638.635 83.5548C635.713 80.6465 634.242 76.9352 634.242 72.551C634.242 68.1669 635.67 64.716 638.722 61.5689C641.665 58.5304 645.279 56.9894 649.456 56.9894C653.633 56.9894 657.269 58.487 660.082 61.4604Z" fill="#46CB19"/>
    <path d="M204.767 49.0903C202.062 46.5292 198.902 44.5542 195.396 43.2085C191.955 41.8846 188.081 41.1901 184.164 41.1901C180.247 41.1901 176.979 41.6893 174.014 42.666H173.971C171.828 43.4039 169.729 44.4457 167.781 45.7696V24.0007H152.004V103.784H167.781V99.0957C169.859 100.485 172.044 101.592 174.295 102.373C177.325 103.436 180.658 103.979 184.186 103.979C187.713 103.979 191.457 103.371 194.769 102.199H194.812C198.145 100.984 201.175 99.2042 203.793 96.9253C207.386 93.8217 210.178 90.0886 212.104 85.8781C214.03 81.6459 215.004 77.0881 215.004 72.335C215.004 67.5819 214.095 63.6535 212.32 59.6166C210.546 55.6014 208.013 52.042 204.767 49.0686V49.0903ZM172.521 83.6643C169.75 80.7126 168.344 77.0447 168.344 72.7691V72.1613C168.473 67.9074 169.902 64.3263 172.607 61.4614C175.421 58.488 178.992 56.9904 183.233 56.9904C187.475 56.9904 191.024 58.5314 193.968 61.5699C197.019 64.717 198.448 68.1896 198.448 72.552C198.448 76.9145 196.976 80.6258 194.076 83.5341L193.968 83.6209C191.003 86.5509 187.172 88.0485 182.627 88.0485C178.083 88.0485 175.291 86.5726 172.521 83.6209V83.6643Z" fill="#46CB19"/>
</svg>
    